#!OML:ASF E:/inclinewalkrobotboard/Project1/Captureday1/Session1/subject1.ASF
:FULLY-SPECIFIED
:DEGREES
288
root 0 0 0 -2.8091774530673774 17.07760152333768 12.662351090501671
lowerback -4.768953726822309 -5.383462550810908 -8.006196291792586
upperback -8.17810023941436 -6.78096843411894 6.120732244584305
thorax -5.9715900619732265 -2.1217697949080296 11.069443770558657
lowerneck -5.765941375905839 -8.523924709411645 -7.016608511893995
upperneck 29.871507104122358 -10.927666385059586 2.003879977845539
head 11.090612142833262 -5.571429638613871 0.38936164582666233
rclavicle -8.217362648588938E-15 6.292932553930948E-15
rhumerus 153.77529515672165 9.832356044060308 -186.74046810909618
rradius 23.675801754070896
rwrist 72.69444455113538
rhand -16.25131960472734 9.748065928738798
rfingers 7.125019999999989
rthumb 9.949922971829112 -19.703120138638052
lclavicle 4.2076408390604774E-15 2.3015556142586627E-16
lhumerus 64.90006267455907 27.757039736372924 21.77082227943595
lradius 52.4230815680722
lwrist -17.931081480050587
lhand -9.866973572105467 9.677520178022457
lfingers 7.125020000000016
lthumb 16.047709915437963 38.58747772826038
rfemur 161.92500997817436 -216.6126800030557 -184.22298211519606
rtibia 71.03519185147721
rfoot -47.65336018179846 -25.397896911606097
rtoes 49.60972222482727
lfemur -86.92051041203449 17.008654103547197 -63.051045223223994
ltibia 65.32210886347107
lfoot -1.5672738153818457 38.04732317874705
ltoes 3.27736996489266
289
root 0 0 0 -0.884316374471851 17.999459906811094 11.340974729282356
lowerback -5.624743148342514 -5.347995205762002 -7.661923747277262
upperback -8.640009658965434 -6.7473300473915625 6.420241321811627
thorax -5.909535335895269 -2.164970483680211 11.213663924186731
lowerneck -5.588768331204406 -8.650711478494133 -7.2713673467282725
upperneck 29.920069932379278 -11.114348505962894 2.1756280227183056
head 11.11152339561783 -5.654191010587514 0.45610144567416044
rclavicle -7.766422967206489E-15 6.040859709666308E-15
rhumerus 154.30349782330876 9.479638108230922 -186.19923764532876
rradius 23.979073217429026
rwrist 71.81422832569808
rhand -16.276345019761965 9.663196083768426
rfingers 7.1250199999999895
rthumb 9.92643626172454 -19.803927163214606
lclavicle 4.076892143857866E-15 -4.483413739230891E-16
lhumerus 65.95048473141516 27.81859409640113 21.169146269092728
lradius 53.07639835785755
lwrist -17.72090468419684
lhand -9.04447478779674 9.504942916801298
lfingers 7.125020000000017
lthumb 16.835323950292246 38.30003692065098
rfemur 162.63819670881517 -217.1130449372502 -184.77459789374285
rtibia 71.13470525120762
rfoot -46.98709330056977 -25.60858409280069
rtoes 49.63751159880479
lfemur -87.13546359018741 17.331360542900512 -62.354921175551624
ltibia 65.45542652861923
lfoot -3.1050853127227747 38.04307981141719
ltoes 4.116184558592444
290
root 0 0 0 1.2822852999430872 19.72459642605907 9.872228450178971
lowerback -6.484907635561137 -5.281776470438894 -7.293203570163791
upperback -9.116575247023242 -6.668642844586031 6.741459618037247
thorax -5.845407517094886 -2.1902989648553355 11.365631059133623
lowerneck -5.338751653607417 -8.782803343388075 -7.494008932290732
upperneck 30.100843951669262 -11.28890361862261 2.202468989841611
head 11.165885256954839 -5.739122640862408 0.47512567521731386
rclavicle -7.341994474397885E-15 5.803929151132072E-15
rhumerus 155.1482923830097 9.157236448726582 -186.18350922813048
rradius 24.0377240848418
rwrist 71.28173315784066
rhand -16.292489545465322 9.516475874173263
rfingers 7.12501999999999
rthumb 9.91038697163287 -19.969627576905626
lclavicle 3.8676336947376456E-15 -1.108999242561935E-15
lhumerus 67.31408172159803 28.02942007663964 20.647448125994156
lradius 53.39368399147662
lwrist -17.535611569401105
lhand -8.408316825373683 9.468490196692908
lfingers 7.125020000000016
lthumb 17.44547903326915 38.18246317914107
rfemur 163.39377486143144 -217.67958442190383 -185.4053218591987
rtibia 71.13790094574689
rfoot -46.49711041786034 -25.706488140134258
rtoes 49.739435296482256
lfemur -87.32061409147877 17.690114083041998 -61.619133046103386
ltibia 65.74288887037612
lfoot -4.683532194289352 37.96678812282937
ltoes 4.929638939882441
291
root 0 0 0 3.8226343288212696 22.6165496042797 8.143830973076229
lowerback -7.381974619347884 -5.178675599370784 -6.865163673831645
upperback -9.625634817423764 -6.535145542275728 7.1130027691910485
thorax -5.770043267408448 -2.1982816988576035 11.536502323828213
lowerneck -4.981980425693769 -8.935785377193508 -7.694769302425699
upperneck 30.461982297116958 -11.464445704036889 2.043721891468505
head 11.267703885456385 -5.835600769992239 0.43338031866163307
rclavicle -6.868969762326779E-15 5.553931025519852E-15
rhumerus 156.36543878899093 8.834960760298241 -186.62600834666569
rradius 23.905100159284505
rwrist 71.07669837056653
rhand -16.310602322140156 9.320596712959963
rfingers 7.125019999999992
rthumb 9.891637444703008 -20.189066526784348
lclavicle 3.645148588535707E-15 -1.7790801365960672E-15
lhumerus 68.88666249702332 28.35085838430627 20.198717264165108
lradius 53.52594916058329
lwrist -17.35631813262083
lhand -7.904141633706189 9.517488810918579
lfingers 7.125020000000015
lthumb 17.93023188434485 38.174665157756394
rfemur 164.0292025389081 -218.19380585473687 -186.01983626373087
rtibia 71.01569678988736
rfoot -46.236415407865636 -25.71511275799198
rtoes 50.0018798961044
lfemur -87.48203911798481 18.08845539080359 -60.86769341396472
ltibia 66.21904220944853
lfoot -6.248739579509174 37.81385074222021
ltoes 5.695794641523857
292
root 0 0 0 6.926484957020595 26.999976501369762 5.994487206645493
lowerback -8.381572484691379 -5.034487848487112 -6.326726265850387
upperback -10.203992748787698 -6.340895331975794 7.5753955254742245
thorax -5.674047319991683 -2.1939867555072086 11.741996199238741
lowerneck -4.486345897927185 -9.131187447234517 -7.9019990869519265
upperneck 31.028660903542498 -11.664319667758402 1.6853043452700023
head 11.42483345871259 -5.956774747777052 0.32712333699216634
rclavicle -6.304886136134226E-15 5.267903965974984E-15
rhumerus 157.91368993100284 8.473397720065478 -187.35898296431668
rradius 23.641850028022795
rwrist 71.16257389157892
rhand -16.34317549869742 9.092571893349291
rfingers 7.125019999999993
rthumb 9.858430864262665 -20.447252319246477
lclavicle 3.450740513992739E-15 -2.49892217874376E-15
lhumerus 70.66355739138903 28.74552759556404 19.76127370811788
lradius 53.565425237072425
lwrist -17.184956432041712
lhand -7.491538146547395 9.625838586407166
lfingers 7.125020000000014
lthumb 18.328187389962963 38.24301674774589
rfemur 164.4425810251471 -218.57710632036216 -186.56166664328745
rtibia 70.72526912955634
rfoot -46.25039463977552 -25.64324524425188
rtoes 50.49302167093829
lfemur -87.63179604841895 18.560338399796905 -60.07559331260269
ltibia 66.91770104937754
lfoot -7.763579400369775 37.56476299773143
ltoes 6.423450368520241
293
root 0 0 0 10.412304633288333 32.5330297970297 3.5298936645159937
lowerback -9.439707419036598 -4.863411237217642 -5.694415318840153
upperback -10.827024265369252 -6.105832533210406 8.109832119891413
thorax -5.564882171571717 -2.18361728555385 11.970915032013675
lowerneck -3.890746873914914 -9.366295565037419 -8.123943429467955
upperneck 31.730902147388775 -11.89076606112188 1.180827637479719
head 11.618010067741 -6.101036234124023 0.17357884014610447
rclavicle -5.618049592893689E-15 4.933716336114855E-15
rhumerus 159.6946547496674 8.036963314285725 -188.18400967712438
rradius 23.302807540703135
rwrist 71.48681996828205
rhand -16.398830578829614 8.847512210757483
rfingers 7.125019999999994
rthumb 9.802615644460504 -20.73054845393188
lclavicle 3.309314714145155E-15 -3.307921233313891E-15
lhumerus 72.70558030082493 29.184656906839155 19.257134010421602
lradius 53.57211809877693
lwrist -17.02350024938898
lhand -7.12969575348121 9.779803323864533
lfingers 7.125020000000012
lthumb 18.67841491280822 38.36651010055693
rfemur 164.57942560571456 -218.77471975579186 -186.99772010176986
rtibia 70.21294108002415
rfoot -46.573663840609505 -25.48453390374514
rtoes 51.258831956938046
lfemur -87.78717640539188 19.16489890504245 -59.169532271545044
ltibia 67.88270483875567
lfoot -9.211051215334457 37.180067899310735
ltoes 7.148371092576932
294
root 0 0 0 13.247560771924007 37.38321612280035 1.4714827609953538
lowerback -10.261941240416625 -4.720608133695233 -5.144148985763766
upperback -11.322530403292426 -5.906858868267028 8.559866672747557
thorax -5.4798986712285895 -2.1746460196691046 12.151260417484757
lowerneck -3.3911124577921106 -9.578288638877629 -8.313471025910209
upperneck 32.3119850872544 -12.091102564814022 0.7238640770670064
head 11.77661602199055 -6.23029293037603 0.032908598444770454
rclavicle -4.817169566203925E-15 4.587101995769735E-15
rhumerus 161.50775996454064 7.5324613023130205 -188.9695297471012
rradius 22.909663613412842
rwrist 72.02401171877086
rhand -16.480487339681513 8.606648685806634
rfingers 7.125019999999996
rthumb 9.721435642708416 -21.01711471507785
lclavicle 3.2476859190228065E-15 -4.1614125674727155E-15
lhumerus 75.01140539797976 29.639823348855746 18.663699208372165
lradius 53.562378251572014
lwrist -16.864456578138817
lhand -6.800720254928005 9.970205507408691
lfingers 7.125020000000009
lthumb 18.998117640542798 38.53172217818347
rfemur 164.41017526767877 -218.740055870566 -187.29165720196463
rtibia 69.4497588185983
rfoot -47.22209851537886 -25.239890927959678
rtoes 52.295486209245524
lfemur -87.9545927775379 19.92284852477041 -58.09364896720706
ltibia 69.12034011965076
lfoot -10.538735928384973 36.621552230652625
ltoes 7.878445352835586
295
root 0 0 0 14.724161535552735 40.07983469173897 0.34982656755062536
lowerback -10.664464633274527 -4.64271997056302 -4.820152364325428
upperback -11.573655683721096 -5.796212932558348 8.803402059565453
thorax -5.4394086000459545 -2.1695606247142534 12.23197860450163
lowerneck -3.131551047806319 -9.706949301206615 -8.42369028203145
upperneck 32.60495976276091 -12.213296286334241 0.46495159086264115
head 11.856728281696821 -6.308461881334144 -0.04769481474713788
rclavicle -4.077968740807937E-15 4.319722899655805E-15
rhumerus 162.99906946155377 7.044318730017036 -189.7217043105847
rradius 22.43215530278988
rwrist 72.81887594049473
rhand -16.588967975673718 8.4095997211809
rfingers 7.1250199999999975
rthumb 9.614250265703388 -21.263843872551607
lclavicle 3.2152899604629397E-15 -4.882857642219616E-15
lhumerus 77.34725024688751 30.077094190501338 18.078486272858687
lradius 53.49612813496182
lwrist -16.70222746186483
lhand -6.5381861391343685 10.181369401220671
lfingers 7.125020000000006
lthumb 19.25474625551511 38.725607464070904
rfemur 163.9709449238417 -218.47415668923375 -187.41625967736658
rtibia 68.52467064610174
rfoot -48.10588164895548 -24.961959340810925
rtoes 53.480638597723804
lfemur -88.11798667153496 20.725372435098542 -56.913099379996055
ltibia 70.49560590194064
lfoot -11.64277594393219 35.918164522791585
ltoes 8.536335497342812
